<?xml version="1.0" encoding="utf-8"?>
<svg xmlns="http://www.w3.org/2000/svg" xmlns:xlink="http://www.w3.org/1999/xlink" width="600" height="400" viewBox="0 0 2400 1600">
<defs>
  <clipPath id="clip870">
    <rect x="0" y="0" width="2400" height="1600"/>
  </clipPath>
</defs>
<path clip-path="url(#clip870)" d="M0 1600 L2400 1600 L2400 0 L0 0  Z" fill="#ffffff" fill-rule="evenodd" fill-opacity="1"/>
<defs>
  <clipPath id="clip871">
    <rect x="249" y="123" width="2104" height="1301"/>
  </clipPath>
</defs>
<path clip-path="url(#clip870)" d="M249.542 1423.18 L2352.76 1423.18 L2352.76 123.472 L249.542 123.472  Z" fill="#ffffff" fill-rule="evenodd" fill-opacity="1"/>
<polyline clip-path="url(#clip871)" style="stroke:#000000; stroke-linecap:round; stroke-linejoin:round; stroke-width:2; stroke-opacity:0.1; fill:none" points="289.025,1423.18 289.025,123.472 "/>
<polyline clip-path="url(#clip871)" style="stroke:#000000; stroke-linecap:round; stroke-linejoin:round; stroke-width:2; stroke-opacity:0.1; fill:none" points="790.076,1423.18 790.076,123.472 "/>
<polyline clip-path="url(#clip871)" style="stroke:#000000; stroke-linecap:round; stroke-linejoin:round; stroke-width:2; stroke-opacity:0.1; fill:none" points="1291.13,1423.18 1291.13,123.472 "/>
<polyline clip-path="url(#clip871)" style="stroke:#000000; stroke-linecap:round; stroke-linejoin:round; stroke-width:2; stroke-opacity:0.1; fill:none" points="1792.18,1423.18 1792.18,123.472 "/>
<polyline clip-path="url(#clip871)" style="stroke:#000000; stroke-linecap:round; stroke-linejoin:round; stroke-width:2; stroke-opacity:0.1; fill:none" points="2293.23,1423.18 2293.23,123.472 "/>
<polyline clip-path="url(#clip871)" style="stroke:#000000; stroke-linecap:round; stroke-linejoin:round; stroke-width:2; stroke-opacity:0.1; fill:none" points="249.542,1386.4 2352.76,1386.4 "/>
<polyline clip-path="url(#clip871)" style="stroke:#000000; stroke-linecap:round; stroke-linejoin:round; stroke-width:2; stroke-opacity:0.1; fill:none" points="249.542,977.683 2352.76,977.683 "/>
<polyline clip-path="url(#clip871)" style="stroke:#000000; stroke-linecap:round; stroke-linejoin:round; stroke-width:2; stroke-opacity:0.1; fill:none" points="249.542,568.969 2352.76,568.969 "/>
<polyline clip-path="url(#clip871)" style="stroke:#000000; stroke-linecap:round; stroke-linejoin:round; stroke-width:2; stroke-opacity:0.1; fill:none" points="249.542,160.256 2352.76,160.256 "/>
<polyline clip-path="url(#clip870)" style="stroke:#000000; stroke-linecap:round; stroke-linejoin:round; stroke-width:4; stroke-opacity:1; fill:none" points="249.542,1423.18 2352.76,1423.18 "/>
<polyline clip-path="url(#clip870)" style="stroke:#000000; stroke-linecap:round; stroke-linejoin:round; stroke-width:4; stroke-opacity:1; fill:none" points="289.025,1423.18 289.025,1404.28 "/>
<polyline clip-path="url(#clip870)" style="stroke:#000000; stroke-linecap:round; stroke-linejoin:round; stroke-width:4; stroke-opacity:1; fill:none" points="790.076,1423.18 790.076,1404.28 "/>
<polyline clip-path="url(#clip870)" style="stroke:#000000; stroke-linecap:round; stroke-linejoin:round; stroke-width:4; stroke-opacity:1; fill:none" points="1291.13,1423.18 1291.13,1404.28 "/>
<polyline clip-path="url(#clip870)" style="stroke:#000000; stroke-linecap:round; stroke-linejoin:round; stroke-width:4; stroke-opacity:1; fill:none" points="1792.18,1423.18 1792.18,1404.28 "/>
<polyline clip-path="url(#clip870)" style="stroke:#000000; stroke-linecap:round; stroke-linejoin:round; stroke-width:4; stroke-opacity:1; fill:none" points="2293.23,1423.18 2293.23,1404.28 "/>
<path clip-path="url(#clip870)" d="M289.025 1454.1 Q285.414 1454.1 283.585 1457.66 Q281.78 1461.2 281.78 1468.33 Q281.78 1475.44 283.585 1479.01 Q285.414 1482.55 289.025 1482.55 Q292.659 1482.55 294.465 1479.01 Q296.293 1475.44 296.293 1468.33 Q296.293 1461.2 294.465 1457.66 Q292.659 1454.1 289.025 1454.1 M289.025 1450.39 Q294.835 1450.39 297.891 1455 Q300.969 1459.58 300.969 1468.33 Q300.969 1477.06 297.891 1481.67 Q294.835 1486.25 289.025 1486.25 Q283.215 1486.25 280.136 1481.67 Q277.081 1477.06 277.081 1468.33 Q277.081 1459.58 280.136 1455 Q283.215 1450.39 289.025 1450.39 Z" fill="#000000" fill-rule="nonzero" fill-opacity="1" /><path clip-path="url(#clip870)" d="M769.347 1481.64 L785.667 1481.64 L785.667 1485.58 L763.722 1485.58 L763.722 1481.64 Q766.384 1478.89 770.968 1474.26 Q775.574 1469.61 776.755 1468.27 Q779 1465.74 779.88 1464.01 Q780.782 1462.25 780.782 1460.56 Q780.782 1457.8 778.838 1456.07 Q776.917 1454.33 773.815 1454.33 Q771.616 1454.33 769.162 1455.09 Q766.732 1455.86 763.954 1457.41 L763.954 1452.69 Q766.778 1451.55 769.232 1450.97 Q771.685 1450.39 773.722 1450.39 Q779.093 1450.39 782.287 1453.08 Q785.482 1455.77 785.482 1460.26 Q785.482 1462.39 784.671 1464.31 Q783.884 1466.2 781.778 1468.8 Q781.199 1469.47 778.097 1472.69 Q774.995 1475.88 769.347 1481.64 Z" fill="#000000" fill-rule="nonzero" fill-opacity="1" /><path clip-path="url(#clip870)" d="M795.528 1451.02 L813.884 1451.02 L813.884 1454.96 L799.81 1454.96 L799.81 1463.43 Q800.829 1463.08 801.847 1462.92 Q802.866 1462.73 803.884 1462.73 Q809.671 1462.73 813.051 1465.9 Q816.43 1469.08 816.43 1474.49 Q816.43 1480.07 812.958 1483.17 Q809.486 1486.25 803.167 1486.25 Q800.991 1486.25 798.722 1485.88 Q796.477 1485.51 794.069 1484.77 L794.069 1480.07 Q796.153 1481.2 798.375 1481.76 Q800.597 1482.32 803.074 1482.32 Q807.079 1482.32 809.417 1480.21 Q811.755 1478.1 811.755 1474.49 Q811.755 1470.88 809.417 1468.77 Q807.079 1466.67 803.074 1466.67 Q801.199 1466.67 799.324 1467.08 Q797.472 1467.5 795.528 1468.38 L795.528 1451.02 Z" fill="#000000" fill-rule="nonzero" fill-opacity="1" /><path clip-path="url(#clip870)" d="M1265.83 1451.02 L1284.18 1451.02 L1284.18 1454.96 L1270.11 1454.96 L1270.11 1463.43 Q1271.13 1463.08 1272.15 1462.92 Q1273.17 1462.73 1274.18 1462.73 Q1279.97 1462.73 1283.35 1465.9 Q1286.73 1469.08 1286.73 1474.49 Q1286.73 1480.07 1283.26 1483.17 Q1279.79 1486.25 1273.47 1486.25 Q1271.29 1486.25 1269.02 1485.88 Q1266.78 1485.51 1264.37 1484.77 L1264.37 1480.07 Q1266.45 1481.2 1268.67 1481.76 Q1270.9 1482.32 1273.37 1482.32 Q1277.38 1482.32 1279.72 1480.21 Q1282.05 1478.1 1282.05 1474.49 Q1282.05 1470.88 1279.72 1468.77 Q1277.38 1466.67 1273.37 1466.67 Q1271.5 1466.67 1269.62 1467.08 Q1267.77 1467.5 1265.83 1468.38 L1265.83 1451.02 Z" fill="#000000" fill-rule="nonzero" fill-opacity="1" /><path clip-path="url(#clip870)" d="M1305.94 1454.1 Q1302.33 1454.1 1300.5 1457.66 Q1298.7 1461.2 1298.7 1468.33 Q1298.7 1475.44 1300.5 1479.01 Q1302.33 1482.55 1305.94 1482.55 Q1309.58 1482.55 1311.38 1479.01 Q1313.21 1475.44 1313.21 1468.33 Q1313.21 1461.2 1311.38 1457.66 Q1309.58 1454.1 1305.94 1454.1 M1305.94 1450.39 Q1311.75 1450.39 1314.81 1455 Q1317.89 1459.58 1317.89 1468.33 Q1317.89 1477.06 1314.81 1481.67 Q1311.75 1486.25 1305.94 1486.25 Q1300.13 1486.25 1297.05 1481.67 Q1294 1477.06 1294 1468.33 Q1294 1459.58 1297.05 1455 Q1300.13 1450.39 1305.94 1450.39 Z" fill="#000000" fill-rule="nonzero" fill-opacity="1" /><path clip-path="url(#clip870)" d="M1766.03 1451.02 L1788.26 1451.02 L1788.26 1453.01 L1775.71 1485.58 L1770.83 1485.58 L1782.63 1454.96 L1766.03 1454.96 L1766.03 1451.02 Z" fill="#000000" fill-rule="nonzero" fill-opacity="1" /><path clip-path="url(#clip870)" d="M1797.42 1451.02 L1815.78 1451.02 L1815.78 1454.96 L1801.7 1454.96 L1801.7 1463.43 Q1802.72 1463.08 1803.74 1462.92 Q1804.76 1462.73 1805.78 1462.73 Q1811.57 1462.73 1814.95 1465.9 Q1818.33 1469.08 1818.33 1474.49 Q1818.33 1480.07 1814.85 1483.17 Q1811.38 1486.25 1805.06 1486.25 Q1802.89 1486.25 1800.62 1485.88 Q1798.37 1485.51 1795.96 1484.77 L1795.96 1480.07 Q1798.05 1481.2 1800.27 1481.76 Q1802.49 1482.32 1804.97 1482.32 Q1808.97 1482.32 1811.31 1480.21 Q1813.65 1478.1 1813.65 1474.49 Q1813.65 1470.88 1811.31 1468.77 Q1808.97 1466.67 1804.97 1466.67 Q1803.09 1466.67 1801.22 1467.08 Q1799.37 1467.5 1797.42 1468.38 L1797.42 1451.02 Z" fill="#000000" fill-rule="nonzero" fill-opacity="1" /><path clip-path="url(#clip870)" d="M2252.84 1481.64 L2260.48 1481.64 L2260.48 1455.28 L2252.17 1456.95 L2252.17 1452.69 L2260.43 1451.02 L2265.11 1451.02 L2265.11 1481.64 L2272.74 1481.64 L2272.74 1485.58 L2252.84 1485.58 L2252.84 1481.64 Z" fill="#000000" fill-rule="nonzero" fill-opacity="1" /><path clip-path="url(#clip870)" d="M2292.19 1454.1 Q2288.58 1454.1 2286.75 1457.66 Q2284.94 1461.2 2284.94 1468.33 Q2284.94 1475.44 2286.75 1479.01 Q2288.58 1482.55 2292.19 1482.55 Q2295.82 1482.55 2297.63 1479.01 Q2299.46 1475.44 2299.46 1468.33 Q2299.46 1461.2 2297.63 1457.66 Q2295.82 1454.1 2292.19 1454.1 M2292.19 1450.39 Q2298 1450.39 2301.06 1455 Q2304.13 1459.58 2304.13 1468.33 Q2304.13 1477.06 2301.06 1481.67 Q2298 1486.25 2292.19 1486.25 Q2286.38 1486.25 2283.3 1481.67 Q2280.24 1477.06 2280.24 1468.33 Q2280.24 1459.58 2283.3 1455 Q2286.38 1450.39 2292.19 1450.39 Z" fill="#000000" fill-rule="nonzero" fill-opacity="1" /><path clip-path="url(#clip870)" d="M2322.35 1454.1 Q2318.74 1454.1 2316.91 1457.66 Q2315.11 1461.2 2315.11 1468.33 Q2315.11 1475.44 2316.91 1479.01 Q2318.74 1482.55 2322.35 1482.55 Q2325.99 1482.55 2327.79 1479.01 Q2329.62 1475.44 2329.62 1468.33 Q2329.62 1461.2 2327.79 1457.66 Q2325.99 1454.1 2322.35 1454.1 M2322.35 1450.39 Q2328.16 1450.39 2331.22 1455 Q2334.3 1459.58 2334.3 1468.33 Q2334.3 1477.06 2331.22 1481.67 Q2328.16 1486.25 2322.35 1486.25 Q2316.54 1486.25 2313.46 1481.67 Q2310.41 1477.06 2310.41 1468.33 Q2310.41 1459.58 2313.46 1455 Q2316.54 1450.39 2322.35 1450.39 Z" fill="#000000" fill-rule="nonzero" fill-opacity="1" /><path clip-path="url(#clip870)" d="M1090.59 1520.52 L1099.24 1520.52 L1120.32 1560.28 L1120.32 1520.52 L1126.55 1520.52 L1126.55 1568.04 L1117.9 1568.04 L1096.83 1528.29 L1096.83 1568.04 L1090.59 1568.04 L1090.59 1520.52 Z" fill="#000000" fill-rule="nonzero" fill-opacity="1" /><path clip-path="url(#clip870)" d="M1149.25 1523.77 Q1146.7 1523.77 1144.95 1525.55 Q1143.2 1527.3 1143.2 1529.85 Q1143.2 1532.36 1144.95 1534.11 Q1146.7 1535.83 1149.25 1535.83 Q1151.79 1535.83 1153.54 1534.11 Q1155.29 1532.36 1155.29 1529.85 Q1155.29 1527.34 1153.51 1525.55 Q1151.76 1523.77 1149.25 1523.77 M1149.25 1519.66 Q1151.28 1519.66 1153.16 1520.46 Q1155.04 1521.22 1156.41 1522.69 Q1157.87 1524.12 1158.6 1525.93 Q1159.34 1527.75 1159.34 1529.85 Q1159.34 1534.05 1156.38 1536.98 Q1153.45 1539.88 1149.18 1539.88 Q1144.89 1539.88 1142.02 1537.01 Q1139.16 1534.15 1139.16 1529.85 Q1139.16 1525.58 1142.09 1522.62 Q1145.01 1519.66 1149.25 1519.66 Z" fill="#000000" fill-rule="nonzero" fill-opacity="1" /><path clip-path="url(#clip870)" d="M1198.2 1522.27 L1198.2 1532.4 L1210.26 1532.4 L1210.26 1536.95 L1198.2 1536.95 L1198.2 1556.3 Q1198.2 1560.66 1199.38 1561.9 Q1200.59 1563.14 1204.25 1563.14 L1210.26 1563.14 L1210.26 1568.04 L1204.25 1568.04 Q1197.47 1568.04 1194.89 1565.53 Q1192.31 1562.98 1192.31 1556.3 L1192.31 1536.95 L1188.01 1536.95 L1188.01 1532.4 L1192.31 1532.4 L1192.31 1522.27 L1198.2 1522.27 Z" fill="#000000" fill-rule="nonzero" fill-opacity="1" /><path clip-path="url(#clip870)" d="M1248.46 1548.76 L1248.46 1551.62 L1221.53 1551.62 Q1221.91 1557.67 1225.16 1560.85 Q1228.44 1564 1234.26 1564 Q1237.64 1564 1240.79 1563.17 Q1243.97 1562.35 1247.09 1560.69 L1247.09 1566.23 Q1243.94 1567.57 1240.63 1568.27 Q1237.32 1568.97 1233.91 1568.97 Q1225.38 1568.97 1220.38 1564 Q1215.42 1559.04 1215.42 1550.57 Q1215.42 1541.82 1220.13 1536.69 Q1224.87 1531.54 1232.89 1531.54 Q1240.09 1531.54 1244.26 1536.18 Q1248.46 1540.8 1248.46 1548.76 M1242.6 1547.04 Q1242.54 1542.23 1239.89 1539.37 Q1237.29 1536.5 1232.96 1536.5 Q1228.05 1536.5 1225.09 1539.27 Q1222.17 1542.04 1221.72 1547.07 L1242.6 1547.04 Z" fill="#000000" fill-rule="nonzero" fill-opacity="1" /><path clip-path="url(#clip870)" d="M1287.7 1546.53 L1287.7 1568.04 L1281.84 1568.04 L1281.84 1546.72 Q1281.84 1541.66 1279.87 1539.14 Q1277.9 1536.63 1273.95 1536.63 Q1269.21 1536.63 1266.47 1539.65 Q1263.73 1542.68 1263.73 1547.9 L1263.73 1568.04 L1257.85 1568.04 L1257.85 1532.4 L1263.73 1532.4 L1263.73 1537.93 Q1265.84 1534.72 1268.67 1533.13 Q1271.53 1531.54 1275.26 1531.54 Q1281.4 1531.54 1284.55 1535.36 Q1287.7 1539.14 1287.7 1546.53 Z" fill="#000000" fill-rule="nonzero" fill-opacity="1" /><path clip-path="url(#clip870)" d="M1305.18 1522.27 L1305.18 1532.4 L1317.24 1532.4 L1317.24 1536.95 L1305.18 1536.95 L1305.18 1556.3 Q1305.18 1560.66 1306.35 1561.9 Q1307.56 1563.14 1311.22 1563.14 L1317.24 1563.14 L1317.24 1568.04 L1311.22 1568.04 Q1304.44 1568.04 1301.87 1565.53 Q1299.29 1562.98 1299.29 1556.3 L1299.29 1536.95 L1294.99 1536.95 L1294.99 1532.4 L1299.29 1532.4 L1299.29 1522.27 L1305.18 1522.27 Z" fill="#000000" fill-rule="nonzero" fill-opacity="1" /><path clip-path="url(#clip870)" d="M1341.14 1550.12 Q1334.04 1550.12 1331.31 1551.75 Q1328.57 1553.37 1328.57 1557.29 Q1328.57 1560.4 1330.61 1562.25 Q1332.68 1564.07 1336.21 1564.07 Q1341.08 1564.07 1344.01 1560.63 Q1346.97 1557.16 1346.97 1551.43 L1346.97 1550.12 L1341.14 1550.12 M1352.82 1547.71 L1352.82 1568.04 L1346.97 1568.04 L1346.97 1562.63 Q1344.96 1565.88 1341.97 1567.44 Q1338.98 1568.97 1334.65 1568.97 Q1329.17 1568.97 1325.93 1565.91 Q1322.71 1562.82 1322.71 1557.67 Q1322.71 1551.65 1326.72 1548.6 Q1330.77 1545.54 1338.75 1545.54 L1346.97 1545.54 L1346.97 1544.97 Q1346.97 1540.93 1344.29 1538.73 Q1341.65 1536.5 1336.84 1536.5 Q1333.79 1536.5 1330.89 1537.23 Q1328 1537.97 1325.32 1539.43 L1325.32 1534.02 Q1328.54 1532.78 1331.56 1532.17 Q1334.58 1531.54 1337.45 1531.54 Q1345.18 1531.54 1349 1535.55 Q1352.82 1539.56 1352.82 1547.71 Z" fill="#000000" fill-rule="nonzero" fill-opacity="1" /><path clip-path="url(#clip870)" d="M1370.68 1522.27 L1370.68 1532.4 L1382.74 1532.4 L1382.74 1536.95 L1370.68 1536.95 L1370.68 1556.3 Q1370.68 1560.66 1371.86 1561.9 Q1373.07 1563.14 1376.73 1563.14 L1382.74 1563.14 L1382.74 1568.04 L1376.73 1568.04 Q1369.95 1568.04 1367.37 1565.53 Q1364.79 1562.98 1364.79 1556.3 L1364.79 1536.95 L1360.49 1536.95 L1360.49 1532.4 L1364.79 1532.4 L1364.79 1522.27 L1370.68 1522.27 Z" fill="#000000" fill-rule="nonzero" fill-opacity="1" /><path clip-path="url(#clip870)" d="M1390.44 1532.4 L1396.3 1532.4 L1396.3 1568.04 L1390.44 1568.04 L1390.44 1532.4 M1390.44 1518.52 L1396.3 1518.52 L1396.3 1525.93 L1390.44 1525.93 L1390.44 1518.52 Z" fill="#000000" fill-rule="nonzero" fill-opacity="1" /><path clip-path="url(#clip870)" d="M1404.35 1532.4 L1410.56 1532.4 L1421.7 1562.31 L1432.84 1532.4 L1439.05 1532.4 L1425.68 1568.04 L1417.72 1568.04 L1404.35 1532.4 Z" fill="#000000" fill-rule="nonzero" fill-opacity="1" /><path clip-path="url(#clip870)" d="M1463.33 1550.12 Q1456.23 1550.12 1453.5 1551.75 Q1450.76 1553.37 1450.76 1557.29 Q1450.76 1560.4 1452.8 1562.25 Q1454.86 1564.07 1458.4 1564.07 Q1463.27 1564.07 1466.2 1560.63 Q1469.16 1557.16 1469.16 1551.43 L1469.16 1550.12 L1463.33 1550.12 M1475.01 1547.71 L1475.01 1568.04 L1469.16 1568.04 L1469.16 1562.63 Q1467.15 1565.88 1464.16 1567.44 Q1461.17 1568.97 1456.84 1568.97 Q1451.36 1568.97 1448.12 1565.91 Q1444.9 1562.82 1444.9 1557.67 Q1444.9 1551.65 1448.91 1548.6 Q1452.96 1545.54 1460.94 1545.54 L1469.16 1545.54 L1469.16 1544.97 Q1469.16 1540.93 1466.48 1538.73 Q1463.84 1536.5 1459.03 1536.5 Q1455.98 1536.5 1453.08 1537.23 Q1450.19 1537.97 1447.51 1539.43 L1447.51 1534.02 Q1450.73 1532.78 1453.75 1532.17 Q1456.77 1531.54 1459.64 1531.54 Q1467.37 1531.54 1471.19 1535.55 Q1475.01 1539.56 1475.01 1547.71 Z" fill="#000000" fill-rule="nonzero" fill-opacity="1" /><path clip-path="url(#clip870)" d="M1509.8 1533.45 L1509.8 1538.98 Q1507.32 1537.71 1504.64 1537.07 Q1501.97 1536.44 1499.11 1536.44 Q1494.75 1536.44 1492.55 1537.77 Q1490.39 1539.11 1490.39 1541.79 Q1490.39 1543.82 1491.95 1545 Q1493.5 1546.15 1498.22 1547.2 L1500.22 1547.64 Q1506.46 1548.98 1509.07 1551.43 Q1511.71 1553.85 1511.71 1558.21 Q1511.71 1563.17 1507.76 1566.07 Q1503.85 1568.97 1496.97 1568.97 Q1494.11 1568.97 1490.99 1568.39 Q1487.9 1567.85 1484.47 1566.74 L1484.47 1560.69 Q1487.71 1562.38 1490.86 1563.24 Q1494.01 1564.07 1497.1 1564.07 Q1501.24 1564.07 1503.47 1562.66 Q1505.7 1561.23 1505.7 1558.65 Q1505.7 1556.27 1504.07 1554.99 Q1502.48 1553.72 1497.04 1552.54 L1495 1552.07 Q1489.56 1550.92 1487.14 1548.56 Q1484.72 1546.18 1484.72 1542.04 Q1484.72 1537.01 1488.28 1534.27 Q1491.85 1531.54 1498.41 1531.54 Q1501.65 1531.54 1504.52 1532.01 Q1507.38 1532.49 1509.8 1533.45 Z" fill="#000000" fill-rule="nonzero" fill-opacity="1" /><polyline clip-path="url(#clip870)" style="stroke:#000000; stroke-linecap:round; stroke-linejoin:round; stroke-width:4; stroke-opacity:1; fill:none" points="249.542,1423.18 249.542,123.472 "/>
<polyline clip-path="url(#clip870)" style="stroke:#000000; stroke-linecap:round; stroke-linejoin:round; stroke-width:4; stroke-opacity:1; fill:none" points="249.542,1386.4 268.44,1386.4 "/>
<polyline clip-path="url(#clip870)" style="stroke:#000000; stroke-linecap:round; stroke-linejoin:round; stroke-width:4; stroke-opacity:1; fill:none" points="249.542,977.683 268.44,977.683 "/>
<polyline clip-path="url(#clip870)" style="stroke:#000000; stroke-linecap:round; stroke-linejoin:round; stroke-width:4; stroke-opacity:1; fill:none" points="249.542,568.969 268.44,568.969 "/>
<polyline clip-path="url(#clip870)" style="stroke:#000000; stroke-linecap:round; stroke-linejoin:round; stroke-width:4; stroke-opacity:1; fill:none" points="249.542,160.256 268.44,160.256 "/>
<path clip-path="url(#clip870)" d="M126.205 1372.19 Q122.593 1372.19 120.765 1375.76 Q118.959 1379.3 118.959 1386.43 Q118.959 1393.54 120.765 1397.1 Q122.593 1400.64 126.205 1400.64 Q129.839 1400.64 131.644 1397.1 Q133.473 1393.54 133.473 1386.43 Q133.473 1379.3 131.644 1375.76 Q129.839 1372.19 126.205 1372.19 M126.205 1368.49 Q132.015 1368.49 135.07 1373.1 Q138.149 1377.68 138.149 1386.43 Q138.149 1395.16 135.07 1399.76 Q132.015 1404.35 126.205 1404.35 Q120.394 1404.35 117.316 1399.76 Q114.26 1395.16 114.26 1386.43 Q114.26 1377.68 117.316 1373.1 Q120.394 1368.49 126.205 1368.49 Z" fill="#000000" fill-rule="nonzero" fill-opacity="1" /><path clip-path="url(#clip870)" d="M146.366 1397.8 L151.251 1397.8 L151.251 1403.68 L146.366 1403.68 L146.366 1397.8 Z" fill="#000000" fill-rule="nonzero" fill-opacity="1" /><path clip-path="url(#clip870)" d="M171.436 1372.19 Q167.825 1372.19 165.996 1375.76 Q164.19 1379.3 164.19 1386.43 Q164.19 1393.54 165.996 1397.1 Q167.825 1400.64 171.436 1400.64 Q175.07 1400.64 176.876 1397.1 Q178.704 1393.54 178.704 1386.43 Q178.704 1379.3 176.876 1375.76 Q175.07 1372.19 171.436 1372.19 M171.436 1368.49 Q177.246 1368.49 180.301 1373.1 Q183.38 1377.68 183.38 1386.43 Q183.38 1395.16 180.301 1399.76 Q177.246 1404.35 171.436 1404.35 Q165.626 1404.35 162.547 1399.76 Q159.491 1395.16 159.491 1386.43 Q159.491 1377.68 162.547 1373.1 Q165.626 1368.49 171.436 1368.49 Z" fill="#000000" fill-rule="nonzero" fill-opacity="1" /><path clip-path="url(#clip870)" d="M201.598 1372.19 Q197.987 1372.19 196.158 1375.76 Q194.352 1379.3 194.352 1386.43 Q194.352 1393.54 196.158 1397.1 Q197.987 1400.64 201.598 1400.64 Q205.232 1400.64 207.037 1397.1 Q208.866 1393.54 208.866 1386.43 Q208.866 1379.3 207.037 1375.76 Q205.232 1372.19 201.598 1372.19 M201.598 1368.49 Q207.408 1368.49 210.463 1373.1 Q213.542 1377.68 213.542 1386.43 Q213.542 1395.16 210.463 1399.76 Q207.408 1404.35 201.598 1404.35 Q195.787 1404.35 192.709 1399.76 Q189.653 1395.16 189.653 1386.43 Q189.653 1377.68 192.709 1373.1 Q195.787 1368.49 201.598 1368.49 Z" fill="#000000" fill-rule="nonzero" fill-opacity="1" /><path clip-path="url(#clip870)" d="M127.2 963.481 Q123.589 963.481 121.76 967.046 Q119.955 970.588 119.955 977.717 Q119.955 984.824 121.76 988.389 Q123.589 991.93 127.2 991.93 Q130.834 991.93 132.64 988.389 Q134.468 984.824 134.468 977.717 Q134.468 970.588 132.64 967.046 Q130.834 963.481 127.2 963.481 M127.2 959.778 Q133.01 959.778 136.066 964.384 Q139.144 968.967 139.144 977.717 Q139.144 986.444 136.066 991.051 Q133.01 995.634 127.2 995.634 Q121.39 995.634 118.311 991.051 Q115.256 986.444 115.256 977.717 Q115.256 968.967 118.311 964.384 Q121.39 959.778 127.2 959.778 Z" fill="#000000" fill-rule="nonzero" fill-opacity="1" /><path clip-path="url(#clip870)" d="M147.362 989.083 L152.246 989.083 L152.246 994.963 L147.362 994.963 L147.362 989.083 Z" fill="#000000" fill-rule="nonzero" fill-opacity="1" /><path clip-path="url(#clip870)" d="M172.431 963.481 Q168.82 963.481 166.991 967.046 Q165.186 970.588 165.186 977.717 Q165.186 984.824 166.991 988.389 Q168.82 991.93 172.431 991.93 Q176.065 991.93 177.871 988.389 Q179.7 984.824 179.7 977.717 Q179.7 970.588 177.871 967.046 Q176.065 963.481 172.431 963.481 M172.431 959.778 Q178.241 959.778 181.297 964.384 Q184.376 968.967 184.376 977.717 Q184.376 986.444 181.297 991.051 Q178.241 995.634 172.431 995.634 Q166.621 995.634 163.542 991.051 Q160.487 986.444 160.487 977.717 Q160.487 968.967 163.542 964.384 Q166.621 959.778 172.431 959.778 Z" fill="#000000" fill-rule="nonzero" fill-opacity="1" /><path clip-path="url(#clip870)" d="M192.639 960.403 L210.996 960.403 L210.996 964.338 L196.922 964.338 L196.922 972.81 Q197.94 972.463 198.959 972.301 Q199.977 972.115 200.996 972.115 Q206.783 972.115 210.162 975.287 Q213.542 978.458 213.542 983.875 Q213.542 989.453 210.07 992.555 Q206.598 995.634 200.278 995.634 Q198.102 995.634 195.834 995.263 Q193.588 994.893 191.181 994.152 L191.181 989.453 Q193.264 990.588 195.487 991.143 Q197.709 991.699 200.186 991.699 Q204.19 991.699 206.528 989.592 Q208.866 987.486 208.866 983.875 Q208.866 980.264 206.528 978.157 Q204.19 976.051 200.186 976.051 Q198.311 976.051 196.436 976.467 Q194.584 976.884 192.639 977.764 L192.639 960.403 Z" fill="#000000" fill-rule="nonzero" fill-opacity="1" /><path clip-path="url(#clip870)" d="M126.205 554.768 Q122.593 554.768 120.765 558.333 Q118.959 561.875 118.959 569.004 Q118.959 576.111 120.765 579.675 Q122.593 583.217 126.205 583.217 Q129.839 583.217 131.644 579.675 Q133.473 576.111 133.473 569.004 Q133.473 561.875 131.644 558.333 Q129.839 554.768 126.205 554.768 M126.205 551.064 Q132.015 551.064 135.07 555.671 Q138.149 560.254 138.149 569.004 Q138.149 577.731 135.07 582.337 Q132.015 586.921 126.205 586.921 Q120.394 586.921 117.316 582.337 Q114.26 577.731 114.26 569.004 Q114.26 560.254 117.316 555.671 Q120.394 551.064 126.205 551.064 Z" fill="#000000" fill-rule="nonzero" fill-opacity="1" /><path clip-path="url(#clip870)" d="M146.366 580.37 L151.251 580.37 L151.251 586.249 L146.366 586.249 L146.366 580.37 Z" fill="#000000" fill-rule="nonzero" fill-opacity="1" /><path clip-path="url(#clip870)" d="M162.246 582.314 L169.885 582.314 L169.885 555.949 L161.575 557.615 L161.575 553.356 L169.839 551.689 L174.514 551.689 L174.514 582.314 L182.153 582.314 L182.153 586.249 L162.246 586.249 L162.246 582.314 Z" fill="#000000" fill-rule="nonzero" fill-opacity="1" /><path clip-path="url(#clip870)" d="M201.598 554.768 Q197.987 554.768 196.158 558.333 Q194.352 561.875 194.352 569.004 Q194.352 576.111 196.158 579.675 Q197.987 583.217 201.598 583.217 Q205.232 583.217 207.037 579.675 Q208.866 576.111 208.866 569.004 Q208.866 561.875 207.037 558.333 Q205.232 554.768 201.598 554.768 M201.598 551.064 Q207.408 551.064 210.463 555.671 Q213.542 560.254 213.542 569.004 Q213.542 577.731 210.463 582.337 Q207.408 586.921 201.598 586.921 Q195.787 586.921 192.709 582.337 Q189.653 577.731 189.653 569.004 Q189.653 560.254 192.709 555.671 Q195.787 551.064 201.598 551.064 Z" fill="#000000" fill-rule="nonzero" fill-opacity="1" /><path clip-path="url(#clip870)" d="M127.2 146.055 Q123.589 146.055 121.76 149.62 Q119.955 153.161 119.955 160.291 Q119.955 167.397 121.76 170.962 Q123.589 174.504 127.2 174.504 Q130.834 174.504 132.64 170.962 Q134.468 167.397 134.468 160.291 Q134.468 153.161 132.64 149.62 Q130.834 146.055 127.2 146.055 M127.2 142.351 Q133.01 142.351 136.066 146.958 Q139.144 151.541 139.144 160.291 Q139.144 169.018 136.066 173.624 Q133.01 178.208 127.2 178.208 Q121.39 178.208 118.311 173.624 Q115.256 169.018 115.256 160.291 Q115.256 151.541 118.311 146.958 Q121.39 142.351 127.2 142.351 Z" fill="#000000" fill-rule="nonzero" fill-opacity="1" /><path clip-path="url(#clip870)" d="M147.362 171.657 L152.246 171.657 L152.246 177.536 L147.362 177.536 L147.362 171.657 Z" fill="#000000" fill-rule="nonzero" fill-opacity="1" /><path clip-path="url(#clip870)" d="M163.241 173.601 L170.88 173.601 L170.88 147.236 L162.57 148.902 L162.57 144.643 L170.834 142.976 L175.51 142.976 L175.51 173.601 L183.149 173.601 L183.149 177.536 L163.241 177.536 L163.241 173.601 Z" fill="#000000" fill-rule="nonzero" fill-opacity="1" /><path clip-path="url(#clip870)" d="M192.639 142.976 L210.996 142.976 L210.996 146.911 L196.922 146.911 L196.922 155.384 Q197.94 155.036 198.959 154.874 Q199.977 154.689 200.996 154.689 Q206.783 154.689 210.162 157.86 Q213.542 161.032 213.542 166.448 Q213.542 172.027 210.07 175.129 Q206.598 178.208 200.278 178.208 Q198.102 178.208 195.834 177.837 Q193.588 177.467 191.181 176.726 L191.181 172.027 Q193.264 173.161 195.487 173.717 Q197.709 174.272 200.186 174.272 Q204.19 174.272 206.528 172.166 Q208.866 170.059 208.866 166.448 Q208.866 162.837 206.528 160.731 Q204.19 158.624 200.186 158.624 Q198.311 158.624 196.436 159.041 Q194.584 159.458 192.639 160.337 L192.639 142.976 Z" fill="#000000" fill-rule="nonzero" fill-opacity="1" /><path clip-path="url(#clip870)" d="M21.7677 981.994 L39.6235 981.994 L39.6235 973.909 Q39.6235 969.422 37.3 966.971 Q34.9765 964.52 30.6797 964.52 Q26.4147 964.52 24.0912 966.971 Q21.7677 969.422 21.7677 973.909 L21.7677 981.994 M16.4842 988.423 L16.4842 973.909 Q16.4842 965.92 20.1126 961.846 Q23.7092 957.741 30.6797 957.741 Q37.7138 957.741 41.3104 961.846 Q44.907 965.92 44.907 973.909 L44.907 981.994 L64.0042 981.994 L64.0042 988.423 L16.4842 988.423 Z" fill="#000000" fill-rule="nonzero" fill-opacity="1" /><path clip-path="url(#clip870)" d="M33.8307 929.859 Q33.2578 930.845 33.0032 932.023 Q32.7167 933.169 32.7167 934.569 Q32.7167 939.535 35.9632 942.208 Q39.1779 944.85 45.2253 944.85 L64.0042 944.85 L64.0042 950.738 L28.3562 950.738 L28.3562 944.85 L33.8944 944.85 Q30.6479 943.004 29.0883 940.044 Q27.4968 937.084 27.4968 932.851 Q27.4968 932.246 27.5923 931.514 Q27.656 930.782 27.8151 929.891 L33.8307 929.859 Z" fill="#000000" fill-rule="nonzero" fill-opacity="1" /><path clip-path="url(#clip870)" d="M14.5426 909.648 Q21.8632 913.913 29.0246 915.981 Q36.186 918.05 43.5384 918.05 Q50.8908 918.05 58.1159 915.981 Q65.3091 913.881 72.5979 909.648 L72.5979 914.74 Q65.1182 919.514 57.8931 921.902 Q50.668 924.257 43.5384 924.257 Q36.4406 924.257 29.2474 921.902 Q22.0542 919.546 14.5426 914.74 L14.5426 909.648 Z" fill="#000000" fill-rule="nonzero" fill-opacity="1" /><path clip-path="url(#clip870)" d="M22.818 882.148 L46.4666 890.869 L46.4666 873.395 L22.818 882.148 M16.4842 885.776 L16.4842 878.487 L64.0042 860.377 L64.0042 867.061 L51.8138 871.39 L51.8138 892.81 L64.0042 897.139 L64.0042 903.918 L16.4842 885.776 Z" fill="#000000" fill-rule="nonzero" fill-opacity="1" /><path clip-path="url(#clip870)" d="M14.5426 854.616 L14.5426 849.523 Q22.0542 844.749 29.2474 842.394 Q36.4406 840.007 43.5384 840.007 Q50.668 840.007 57.8931 842.394 Q65.1182 844.749 72.5979 849.523 L72.5979 854.616 Q65.3091 850.383 58.1159 848.314 Q50.8908 846.213 43.5384 846.213 Q36.186 846.213 29.0246 848.314 Q21.8632 850.383 14.5426 854.616 Z" fill="#000000" fill-rule="nonzero" fill-opacity="1" /><path clip-path="url(#clip870)" d="M29.4065 784.816 L34.9447 784.816 Q33.6716 787.299 33.035 789.972 Q32.3984 792.646 32.3984 795.51 Q32.3984 799.871 33.7352 802.067 Q35.072 804.231 37.7456 804.231 Q39.7826 804.231 40.9603 802.672 Q42.1061 801.112 43.1565 796.402 L43.6021 794.396 Q44.9389 788.158 47.3897 785.548 Q49.8086 782.906 54.1691 782.906 Q59.1344 782.906 62.0308 786.853 Q64.9272 790.768 64.9272 797.643 Q64.9272 800.508 64.3543 803.627 Q63.8132 806.714 62.6992 810.152 L56.6518 810.152 Q58.3387 806.905 59.198 803.754 Q60.0256 800.603 60.0256 797.516 Q60.0256 793.378 58.6251 791.15 Q57.1929 788.922 54.6147 788.922 Q52.2276 788.922 50.9545 790.545 Q49.6813 792.137 48.5037 797.579 L48.0262 799.616 Q46.8804 805.059 44.5251 807.478 Q42.138 809.897 38.0002 809.897 Q32.9713 809.897 30.2341 806.332 Q27.4968 802.767 27.4968 796.211 Q27.4968 792.964 27.9743 790.1 Q28.4517 787.235 29.4065 784.816 Z" fill="#000000" fill-rule="nonzero" fill-opacity="1" /><path clip-path="url(#clip870)" d="M49.9359 774.185 L28.3562 774.185 L28.3562 768.329 L49.7131 768.329 Q54.7739 768.329 57.3202 766.356 Q59.8346 764.382 59.8346 760.435 Q59.8346 755.693 56.8109 752.956 Q53.7872 750.187 48.5673 750.187 L28.3562 750.187 L28.3562 744.33 L64.0042 744.33 L64.0042 750.187 L58.5296 750.187 Q61.7762 752.319 63.3676 755.152 Q64.9272 757.953 64.9272 761.677 Q64.9272 767.82 61.1078 771.003 Q57.2883 774.185 49.9359 774.185 M27.4968 759.449 L27.4968 759.449 Z" fill="#000000" fill-rule="nonzero" fill-opacity="1" /><path clip-path="url(#clip870)" d="M29.7248 706.613 L35.1993 706.613 Q33.8307 709.096 33.1623 711.61 Q32.4621 714.093 32.4621 716.639 Q32.4621 722.337 36.0905 725.488 Q39.6872 728.639 46.212 728.639 Q52.7369 728.639 56.3653 725.488 Q59.9619 722.337 59.9619 716.639 Q59.9619 714.093 59.2935 711.61 Q58.5933 709.096 57.2247 706.613 L62.6355 706.613 Q63.7814 709.064 64.3543 711.706 Q64.9272 714.316 64.9272 717.276 Q64.9272 725.329 59.8664 730.071 Q54.8057 734.813 46.212 734.813 Q37.491 734.813 32.4939 730.039 Q27.4968 725.233 27.4968 716.894 Q27.4968 714.189 28.0697 711.61 Q28.6108 709.032 29.7248 706.613 Z" fill="#000000" fill-rule="nonzero" fill-opacity="1" /><path clip-path="url(#clip870)" d="M44.7161 665.937 L47.5806 665.937 L47.5806 692.863 Q53.6281 692.482 56.8109 689.235 Q59.9619 685.957 59.9619 680.132 Q59.9619 676.758 59.1344 673.607 Q58.3069 670.424 56.6518 667.305 L62.1899 667.305 Q63.5267 670.456 64.227 673.766 Q64.9272 677.076 64.9272 680.482 Q64.9272 689.012 59.9619 694.009 Q54.9967 698.975 46.5303 698.975 Q37.7774 698.975 32.6531 694.264 Q27.4968 689.521 27.4968 681.501 Q27.4968 674.307 32.1438 670.138 Q36.7589 665.937 44.7161 665.937 M42.9973 671.793 Q38.1912 671.857 35.3266 674.498 Q32.4621 677.108 32.4621 681.437 Q32.4621 686.339 35.2312 689.299 Q38.0002 692.227 43.0292 692.672 L42.9973 671.793 Z" fill="#000000" fill-rule="nonzero" fill-opacity="1" /><path clip-path="url(#clip870)" d="M29.4065 633.599 L34.9447 633.599 Q33.6716 636.081 33.035 638.755 Q32.3984 641.429 32.3984 644.293 Q32.3984 648.654 33.7352 650.85 Q35.072 653.014 37.7456 653.014 Q39.7826 653.014 40.9603 651.455 Q42.1061 649.895 43.1565 645.184 L43.6021 643.179 Q44.9389 636.941 47.3897 634.331 Q49.8086 631.689 54.1691 631.689 Q59.1344 631.689 62.0308 635.636 Q64.9272 639.551 64.9272 646.426 Q64.9272 649.29 64.3543 652.409 Q63.8132 655.497 62.6992 658.934 L56.6518 658.934 Q58.3387 655.688 59.198 652.537 Q60.0256 649.386 60.0256 646.298 Q60.0256 642.161 58.6251 639.933 Q57.1929 637.705 54.6147 637.705 Q52.2276 637.705 50.9545 639.328 Q49.6813 640.919 48.5037 646.362 L48.0262 648.399 Q46.8804 653.842 44.5251 656.261 Q42.138 658.68 38.0002 658.68 Q32.9713 658.68 30.2341 655.115 Q27.4968 651.55 27.4968 644.993 Q27.4968 641.747 27.9743 638.882 Q28.4517 636.018 29.4065 633.599 Z" fill="#000000" fill-rule="nonzero" fill-opacity="1" /><path clip-path="url(#clip870)" d="M29.4065 599.638 L34.9447 599.638 Q33.6716 602.12 33.035 604.794 Q32.3984 607.467 32.3984 610.332 Q32.3984 614.693 33.7352 616.889 Q35.072 619.053 37.7456 619.053 Q39.7826 619.053 40.9603 617.493 Q42.1061 615.934 43.1565 611.223 L43.6021 609.218 Q44.9389 602.98 47.3897 600.37 Q49.8086 597.728 54.1691 597.728 Q59.1344 597.728 62.0308 601.675 Q64.9272 605.59 64.9272 612.465 Q64.9272 615.329 64.3543 618.448 Q63.8132 621.536 62.6992 624.973 L56.6518 624.973 Q58.3387 621.727 59.198 618.576 Q60.0256 615.425 60.0256 612.337 Q60.0256 608.2 58.6251 605.972 Q57.1929 603.744 54.6147 603.744 Q52.2276 603.744 50.9545 605.367 Q49.6813 606.958 48.5037 612.401 L48.0262 614.438 Q46.8804 619.881 44.5251 622.3 Q42.138 624.719 38.0002 624.719 Q32.9713 624.719 30.2341 621.154 Q27.4968 617.589 27.4968 611.032 Q27.4968 607.786 27.9743 604.921 Q28.4517 602.057 29.4065 599.638 Z" fill="#000000" fill-rule="nonzero" fill-opacity="1" /><path clip-path="url(#clip870)" d="M32.4621 574.589 Q32.4621 579.299 36.1542 582.036 Q39.8145 584.774 46.212 584.774 Q52.6095 584.774 56.3017 582.068 Q59.9619 579.331 59.9619 574.589 Q59.9619 569.91 56.2698 567.173 Q52.5777 564.435 46.212 564.435 Q39.8781 564.435 36.186 567.173 Q32.4621 569.91 32.4621 574.589 M27.4968 574.589 Q27.4968 566.95 32.4621 562.589 Q37.4273 558.229 46.212 558.229 Q54.9649 558.229 59.9619 562.589 Q64.9272 566.95 64.9272 574.589 Q64.9272 582.259 59.9619 586.62 Q54.9649 590.948 46.212 590.948 Q37.4273 590.948 32.4621 586.62 Q27.4968 582.259 27.4968 574.589 Z" fill="#000000" fill-rule="nonzero" fill-opacity="1" /><path clip-path="url(#clip870)" d="M772.506 14.0809 L772.506 22.0612 Q767.847 19.8332 763.716 18.7395 Q759.584 17.6457 755.735 17.6457 Q749.051 17.6457 745.405 20.2383 Q741.8 22.8309 741.8 27.611 Q741.8 31.6214 744.19 33.6873 Q746.621 35.7128 753.345 36.9686 L758.287 37.9813 Q767.442 39.7232 771.777 44.1387 Q776.152 48.5136 776.152 55.8863 Q776.152 64.6767 770.237 69.2137 Q764.364 73.7508 752.981 73.7508 Q748.687 73.7508 743.826 72.7785 Q739.005 71.8063 733.82 69.9024 L733.82 61.4765 Q738.802 64.2716 743.583 65.6895 Q748.363 67.1073 752.981 67.1073 Q759.989 67.1073 763.797 64.3527 Q767.604 61.598 767.604 56.4939 Q767.604 52.0379 764.85 49.5264 Q762.136 47.0148 755.897 45.759 L750.915 44.7868 Q741.76 42.9639 737.668 39.075 Q733.577 35.1862 733.577 28.2591 Q733.577 20.2383 739.208 15.6203 Q744.879 11.0023 754.804 11.0023 Q759.057 11.0023 763.472 11.7719 Q767.888 12.5416 772.506 14.0809 Z" fill="#000000" fill-rule="nonzero" fill-opacity="1" /><path clip-path="url(#clip870)" d="M788.588 27.2059 L796.042 27.2059 L796.042 72.576 L788.588 72.576 L788.588 27.2059 M788.588 9.54393 L796.042 9.54393 L796.042 18.9825 L788.588 18.9825 L788.588 9.54393 Z" fill="#000000" fill-rule="nonzero" fill-opacity="1" /><path clip-path="url(#clip870)" d="M846.962 35.9153 Q849.757 30.8922 853.646 28.5022 Q857.534 26.1121 862.801 26.1121 Q869.89 26.1121 873.738 31.0947 Q877.586 36.0368 877.586 45.1919 L877.586 72.576 L870.092 72.576 L870.092 45.4349 Q870.092 38.913 867.783 35.7533 Q865.474 32.5936 860.735 32.5936 Q854.942 32.5936 851.58 36.4419 Q848.217 40.2903 848.217 46.9338 L848.217 72.576 L840.723 72.576 L840.723 45.4349 Q840.723 38.8725 838.414 35.7533 Q836.105 32.5936 831.285 32.5936 Q825.573 32.5936 822.211 36.4824 Q818.848 40.3308 818.848 46.9338 L818.848 72.576 L811.354 72.576 L811.354 27.2059 L818.848 27.2059 L818.848 34.2544 Q821.4 30.082 824.965 28.0971 Q828.53 26.1121 833.432 26.1121 Q838.374 26.1121 841.817 28.6237 Q845.301 31.1352 846.962 35.9153 Z" fill="#000000" fill-rule="nonzero" fill-opacity="1" /><path clip-path="url(#clip870)" d="M891.684 54.671 L891.684 27.2059 L899.137 27.2059 L899.137 54.3874 Q899.137 60.8284 901.649 64.0691 Q904.16 67.2693 909.183 67.2693 Q915.219 67.2693 918.703 63.421 Q922.227 59.5726 922.227 52.9291 L922.227 27.2059 L929.681 27.2059 L929.681 72.576 L922.227 72.576 L922.227 65.6084 Q919.513 69.7404 915.908 71.7658 Q912.343 73.7508 907.604 73.7508 Q899.785 73.7508 895.734 68.8897 Q891.684 64.0286 891.684 54.671 M910.439 26.1121 L910.439 26.1121 Z" fill="#000000" fill-rule="nonzero" fill-opacity="1" /><path clip-path="url(#clip870)" d="M945.034 9.54393 L952.488 9.54393 L952.488 72.576 L945.034 72.576 L945.034 9.54393 Z" fill="#000000" fill-rule="nonzero" fill-opacity="1" /><path clip-path="url(#clip870)" d="M988.703 49.7694 Q979.669 49.7694 976.185 51.8354 Q972.702 53.9013 972.702 58.8839 Q972.702 62.8538 975.294 65.2034 Q977.927 67.5124 982.424 67.5124 Q988.622 67.5124 992.349 63.1374 Q996.116 58.7219 996.116 51.4303 L996.116 49.7694 L988.703 49.7694 M1003.57 46.6907 L1003.57 72.576 L996.116 72.576 L996.116 65.6895 Q993.564 69.8214 989.756 71.8063 Q985.948 73.7508 980.439 73.7508 Q973.471 73.7508 969.339 69.8619 Q965.248 65.9325 965.248 59.3701 Q965.248 51.7138 970.352 47.825 Q975.497 43.9361 985.665 43.9361 L996.116 43.9361 L996.116 43.2069 Q996.116 38.0623 992.713 35.2672 Q989.351 32.4315 983.234 32.4315 Q979.345 32.4315 975.659 33.3632 Q971.972 34.295 968.57 36.1584 L968.57 29.2718 Q972.661 27.692 976.51 26.9223 Q980.358 26.1121 984.004 26.1121 Q993.847 26.1121 998.708 31.2163 Q1003.57 36.3204 1003.57 46.6907 Z" fill="#000000" fill-rule="nonzero" fill-opacity="1" /><path clip-path="url(#clip870)" d="M1051.57 28.9478 L1051.57 35.9153 Q1048.41 34.1734 1045.21 33.3227 Q1042.05 32.4315 1038.81 32.4315 Q1031.56 32.4315 1027.55 37.0496 Q1023.54 41.6271 1023.54 49.9314 Q1023.54 58.2358 1027.55 62.8538 Q1031.56 67.4314 1038.81 67.4314 Q1042.05 67.4314 1045.21 66.5807 Q1048.41 65.6895 1051.57 63.9476 L1051.57 70.8341 Q1048.45 72.2924 1045.09 73.0216 Q1041.77 73.7508 1038 73.7508 Q1027.75 73.7508 1021.72 67.3098 Q1015.68 60.8689 1015.68 49.9314 Q1015.68 38.832 1021.76 32.472 Q1027.87 26.1121 1038.49 26.1121 Q1041.93 26.1121 1045.21 26.8413 Q1048.49 27.5299 1051.57 28.9478 M1041.04 72.576 Q1043.27 75.0876 1044.36 77.194 Q1045.46 79.341 1045.46 81.2854 Q1045.46 84.8907 1043.03 86.7137 Q1040.59 88.5771 1035.81 88.5771 Q1033.95 88.5771 1032.17 88.334 Q1030.43 88.091 1028.69 87.6049 L1028.69 82.2982 Q1030.06 82.9868 1031.56 83.2704 Q1033.06 83.5945 1034.96 83.5945 Q1037.35 83.5945 1038.57 82.6222 Q1039.78 81.65 1039.78 79.7866 Q1039.78 78.5713 1038.89 76.7889 Q1038.04 75.0471 1036.22 72.576 L1041.04 72.576 Z" fill="#000000" fill-rule="nonzero" fill-opacity="1" /><path clip-path="url(#clip870)" d="M1085.15 49.7694 Q1076.12 49.7694 1072.64 51.8354 Q1069.15 53.9013 1069.15 58.8839 Q1069.15 62.8538 1071.75 65.2034 Q1074.38 67.5124 1078.88 67.5124 Q1085.07 67.5124 1088.8 63.1374 Q1092.57 58.7219 1092.57 51.4303 L1092.57 49.7694 L1085.15 49.7694 M1100.02 46.6907 L1100.02 72.576 L1092.57 72.576 L1092.57 65.6895 Q1090.02 69.8214 1086.21 71.8063 Q1082.4 73.7508 1076.89 73.7508 Q1069.92 73.7508 1065.79 69.8619 Q1061.7 65.9325 1061.7 59.3701 Q1061.7 51.7138 1066.8 47.825 Q1071.95 43.9361 1082.12 43.9361 L1092.57 43.9361 L1092.57 43.2069 Q1092.57 38.0623 1089.17 35.2672 Q1085.8 32.4315 1079.69 32.4315 Q1075.8 32.4315 1072.11 33.3632 Q1068.42 34.295 1065.02 36.1584 L1065.02 29.2718 Q1069.11 27.692 1072.96 26.9223 Q1076.81 26.1121 1080.46 26.1121 Q1090.3 26.1121 1095.16 31.2163 Q1100.02 36.3204 1100.02 46.6907 M1080.62 17.0786 L1078.31 14.8506 Q1077.42 14.0404 1076.73 13.6759 Q1076.08 13.2708 1075.55 13.2708 Q1074.01 13.2708 1073.29 14.7696 Q1072.56 16.2279 1072.48 19.5497 L1067.41 19.5497 Q1067.49 14.0809 1069.56 11.1238 Q1071.62 8.12611 1075.31 8.12611 Q1076.85 8.12611 1078.15 8.69324 Q1079.44 9.26037 1080.94 10.5972 L1083.25 12.8252 Q1084.14 13.6353 1084.79 14.0404 Q1085.48 14.405 1086.01 14.405 Q1087.54 14.405 1088.27 12.9467 Q1089 11.4479 1089.08 8.12611 L1094.15 8.12611 Q1094.07 13.5948 1092 16.5925 Q1089.93 19.5497 1086.25 19.5497 Q1084.71 19.5497 1083.41 18.9825 Q1082.12 18.4154 1080.62 17.0786 Z" fill="#000000" fill-rule="nonzero" fill-opacity="1" /><path clip-path="url(#clip870)" d="M1132.96 32.4315 Q1126.96 32.4315 1123.48 37.1306 Q1119.99 41.7891 1119.99 49.9314 Q1119.99 58.0738 1123.44 62.7728 Q1126.92 67.4314 1132.96 67.4314 Q1138.91 67.4314 1142.39 62.7323 Q1145.88 58.0333 1145.88 49.9314 Q1145.88 41.8701 1142.39 37.1711 Q1138.91 32.4315 1132.96 32.4315 M1132.96 26.1121 Q1142.68 26.1121 1148.23 32.4315 Q1153.78 38.7509 1153.78 49.9314 Q1153.78 61.0714 1148.23 67.4314 Q1142.68 73.7508 1132.96 73.7508 Q1123.19 73.7508 1117.64 67.4314 Q1112.13 61.0714 1112.13 49.9314 Q1112.13 38.7509 1117.64 32.4315 Q1123.19 26.1121 1132.96 26.1121 Z" fill="#000000" fill-rule="nonzero" fill-opacity="1" /><path clip-path="url(#clip870)" d="M1222.36 34.0924 L1222.36 9.54393 L1229.81 9.54393 L1229.81 72.576 L1222.36 72.576 L1222.36 65.7705 Q1220.01 69.8214 1216.4 71.8063 Q1212.84 73.7508 1207.82 73.7508 Q1199.59 73.7508 1194.41 67.1883 Q1189.26 60.6258 1189.26 49.9314 Q1189.26 39.2371 1194.41 32.6746 Q1199.59 26.1121 1207.82 26.1121 Q1212.84 26.1121 1216.4 28.0971 Q1220.01 30.0415 1222.36 34.0924 M1196.96 49.9314 Q1196.96 58.1548 1200.32 62.8538 Q1203.72 67.5124 1209.64 67.5124 Q1215.55 67.5124 1218.96 62.8538 Q1222.36 58.1548 1222.36 49.9314 Q1222.36 41.7081 1218.96 37.0496 Q1215.55 32.3505 1209.64 32.3505 Q1203.72 32.3505 1200.32 37.0496 Q1196.96 41.7081 1196.96 49.9314 Z" fill="#000000" fill-rule="nonzero" fill-opacity="1" /><path clip-path="url(#clip870)" d="M1283.97 48.0275 L1283.97 51.6733 L1249.7 51.6733 Q1250.19 59.3701 1254.32 63.421 Q1258.49 67.4314 1265.91 67.4314 Q1270.2 67.4314 1274.21 66.3781 Q1278.26 65.3249 1282.23 63.2184 L1282.23 70.267 Q1278.22 71.9684 1274.01 72.8596 Q1269.79 73.7508 1265.46 73.7508 Q1254.6 73.7508 1248.24 67.4314 Q1241.92 61.1119 1241.92 50.3365 Q1241.92 39.1965 1247.92 32.6746 Q1253.96 26.1121 1264.16 26.1121 Q1273.32 26.1121 1278.63 32.0264 Q1283.97 37.9003 1283.97 48.0275 M1276.52 45.84 Q1276.44 39.7232 1273.08 36.0774 Q1269.75 32.4315 1264.25 32.4315 Q1258.01 32.4315 1254.24 35.9558 Q1250.51 39.4801 1249.95 45.8805 L1276.52 45.84 Z" fill="#000000" fill-rule="nonzero" fill-opacity="1" /><path clip-path="url(#clip870)" d="M1357.46 43.6931 L1357.46 65.8515 L1370.58 65.8515 Q1377.18 65.8515 1380.34 63.1374 Q1383.54 60.3828 1383.54 54.752 Q1383.54 49.0808 1380.34 46.4072 Q1377.18 43.6931 1370.58 43.6931 L1357.46 43.6931 M1357.46 18.8205 L1357.46 37.0496 L1369.57 37.0496 Q1375.56 37.0496 1378.48 34.8216 Q1381.44 32.5531 1381.44 27.935 Q1381.44 23.3575 1378.48 21.089 Q1375.56 18.8205 1369.57 18.8205 L1357.46 18.8205 M1349.27 12.096 L1370.18 12.096 Q1379.53 12.096 1384.6 15.9849 Q1389.66 19.8737 1389.66 27.0438 Q1389.66 32.5936 1387.07 35.8748 Q1384.48 39.156 1379.45 39.9662 Q1385.49 41.2625 1388.81 45.3944 Q1392.17 49.4858 1392.17 55.6432 Q1392.17 63.745 1386.66 68.1605 Q1381.15 72.576 1370.99 72.576 L1349.27 72.576 L1349.27 12.096 Z" fill="#000000" fill-rule="nonzero" fill-opacity="1" /><path clip-path="url(#clip870)" d="M1406.19 12.096 L1440.95 12.096 L1440.95 18.9825 L1414.37 18.9825 L1414.37 36.8065 L1438.35 36.8065 L1438.35 43.6931 L1414.37 43.6931 L1414.37 72.576 L1406.19 72.576 L1406.19 12.096 Z" fill="#000000" fill-rule="nonzero" fill-opacity="1" /><path clip-path="url(#clip870)" d="M1453.91 12.096 L1462.09 12.096 L1462.09 72.576 L1453.91 72.576 L1453.91 12.096 Z" fill="#000000" fill-rule="nonzero" fill-opacity="1" /><path clip-path="url(#clip870)" d="M1511.63 65.7705 L1511.63 89.8329 L1504.14 89.8329 L1504.14 27.2059 L1511.63 27.2059 L1511.63 34.0924 Q1513.98 30.0415 1517.55 28.0971 Q1521.15 26.1121 1526.14 26.1121 Q1534.4 26.1121 1539.54 32.6746 Q1544.73 39.2371 1544.73 49.9314 Q1544.73 60.6258 1539.54 67.1883 Q1534.4 73.7508 1526.14 73.7508 Q1521.15 73.7508 1517.55 71.8063 Q1513.98 69.8214 1511.63 65.7705 M1536.99 49.9314 Q1536.99 41.7081 1533.59 37.0496 Q1530.23 32.3505 1524.31 32.3505 Q1518.4 32.3505 1515 37.0496 Q1511.63 41.7081 1511.63 49.9314 Q1511.63 58.1548 1515 62.8538 Q1518.4 67.5124 1524.31 67.5124 Q1530.23 67.5124 1533.59 62.8538 Q1536.99 58.1548 1536.99 49.9314 Z" fill="#000000" fill-rule="nonzero" fill-opacity="1" /><path clip-path="url(#clip870)" d="M1577.7 49.7694 Q1568.67 49.7694 1565.19 51.8354 Q1561.7 53.9013 1561.7 58.8839 Q1561.7 62.8538 1564.3 65.2034 Q1566.93 67.5124 1571.43 67.5124 Q1577.62 67.5124 1581.35 63.1374 Q1585.12 58.7219 1585.12 51.4303 L1585.12 49.7694 L1577.7 49.7694 M1592.57 46.6907 L1592.57 72.576 L1585.12 72.576 L1585.12 65.6895 Q1582.57 69.8214 1578.76 71.8063 Q1574.95 73.7508 1569.44 73.7508 Q1562.47 73.7508 1558.34 69.8619 Q1554.25 65.9325 1554.25 59.3701 Q1554.25 51.7138 1559.35 47.825 Q1564.5 43.9361 1574.67 43.9361 L1585.12 43.9361 L1585.12 43.2069 Q1585.12 38.0623 1581.71 35.2672 Q1578.35 32.4315 1572.24 32.4315 Q1568.35 32.4315 1564.66 33.3632 Q1560.97 34.295 1557.57 36.1584 L1557.57 29.2718 Q1561.66 27.692 1565.51 26.9223 Q1569.36 26.1121 1573.01 26.1121 Q1582.85 26.1121 1587.71 31.2163 Q1592.57 36.3204 1592.57 46.6907 Z" fill="#000000" fill-rule="nonzero" fill-opacity="1" /><path clip-path="url(#clip870)" d="M1634.21 34.1734 Q1632.96 33.4443 1631.46 33.1202 Q1630 32.7556 1628.22 32.7556 Q1621.9 32.7556 1618.5 36.8875 Q1615.13 40.9789 1615.13 48.6757 L1615.13 72.576 L1607.64 72.576 L1607.64 27.2059 L1615.13 27.2059 L1615.13 34.2544 Q1617.48 30.1225 1621.25 28.1376 Q1625.02 26.1121 1630.41 26.1121 Q1631.18 26.1121 1632.11 26.2337 Q1633.04 26.3147 1634.17 26.5172 L1634.21 34.1734 Z" fill="#000000" fill-rule="nonzero" fill-opacity="1" /><path clip-path="url(#clip870)" d="M1662.65 49.7694 Q1653.62 49.7694 1650.13 51.8354 Q1646.65 53.9013 1646.65 58.8839 Q1646.65 62.8538 1649.24 65.2034 Q1651.88 67.5124 1656.37 67.5124 Q1662.57 67.5124 1666.3 63.1374 Q1670.06 58.7219 1670.06 51.4303 L1670.06 49.7694 L1662.65 49.7694 M1677.52 46.6907 L1677.52 72.576 L1670.06 72.576 L1670.06 65.6895 Q1667.51 69.8214 1663.7 71.8063 Q1659.9 73.7508 1654.39 73.7508 Q1647.42 73.7508 1643.29 69.8619 Q1639.2 65.9325 1639.2 59.3701 Q1639.2 51.7138 1644.3 47.825 Q1649.45 43.9361 1659.61 43.9361 L1670.06 43.9361 L1670.06 43.2069 Q1670.06 38.0623 1666.66 35.2672 Q1663.3 32.4315 1657.18 32.4315 Q1653.29 32.4315 1649.61 33.3632 Q1645.92 34.295 1642.52 36.1584 L1642.52 29.2718 Q1646.61 27.692 1650.46 26.9223 Q1654.31 26.1121 1657.95 26.1121 Q1667.8 26.1121 1672.66 31.2163 Q1677.52 36.3204 1677.52 46.6907 Z" fill="#000000" fill-rule="nonzero" fill-opacity="1" /><path clip-path="url(#clip870)" d="M1727.75 18.8205 L1727.75 65.8515 L1737.63 65.8515 Q1750.15 65.8515 1755.94 60.1802 Q1761.78 54.509 1761.78 42.2752 Q1761.78 30.1225 1755.94 24.4918 Q1750.15 18.8205 1737.63 18.8205 L1727.75 18.8205 M1719.57 12.096 L1736.38 12.096 Q1753.96 12.096 1762.18 19.4281 Q1770.41 26.7198 1770.41 42.2752 Q1770.41 57.9117 1762.14 65.2439 Q1753.88 72.576 1736.38 72.576 L1719.57 72.576 L1719.57 12.096 Z" fill="#000000" fill-rule="nonzero" fill-opacity="1" /><path clip-path="url(#clip870)" d="M1783.45 12.096 L1791.63 12.096 L1791.63 65.6895 L1821.08 65.6895 L1821.08 72.576 L1783.45 72.576 L1783.45 12.096 Z" fill="#000000" fill-rule="nonzero" fill-opacity="1" /><path clip-path="url(#clip870)" d="M1837.85 18.8205 L1837.85 41.5461 L1848.14 41.5461 Q1853.85 41.5461 1856.97 38.5889 Q1860.09 35.6318 1860.09 30.163 Q1860.09 24.7348 1856.97 21.7777 Q1853.85 18.8205 1848.14 18.8205 L1837.85 18.8205 M1829.67 12.096 L1848.14 12.096 Q1858.31 12.096 1863.5 16.714 Q1868.72 21.2916 1868.72 30.163 Q1868.72 39.1155 1863.5 43.6931 Q1858.31 48.2706 1848.14 48.2706 L1837.85 48.2706 L1837.85 72.576 L1829.67 72.576 L1829.67 12.096 Z" fill="#000000" fill-rule="nonzero" fill-opacity="1" /><polyline clip-path="url(#clip871)" style="stroke:#009af9; stroke-linecap:round; stroke-linejoin:round; stroke-width:4; stroke-opacity:1; fill:none" points="309.067,1386.4 329.109,1386.4 349.151,1386.4 369.193,1141.17 389.235,1304.65 409.277,1386.4 429.319,1386.4 449.361,1386.4 469.403,1386.4 489.446,1386.4 509.488,1304.65 529.53,1386.4 549.572,1141.17 569.614,1386.4 589.656,1141.17 609.698,1304.65 629.74,1304.65 649.782,1304.65 669.824,1141.17 689.866,1222.91 709.908,1304.65 729.95,1304.65 749.992,1222.91 770.034,1222.91 790.076,1141.17 810.118,1304.65 830.161,1304.65 850.203,1059.43 870.245,1386.4 890.287,1222.91 910.329,1059.43 930.371,977.683 950.413,1304.65 970.455,1141.17 990.497,1304.65 1010.54,1059.43 1030.58,1141.17 1050.62,1059.43 1070.67,1141.17 1090.71,1304.65 1110.75,977.683 1130.79,1059.43 1150.83,1059.43 1170.88,1059.43 1190.92,1386.4 1210.96,977.683 1231,814.197 1251.04,895.94 1271.09,1059.43 1291.13,895.94 1311.17,1222.91 1331.21,814.197 1351.25,977.683 1371.3,895.94 1391.34,732.455 1411.38,814.197 1431.42,977.683 1451.46,732.455 1471.51,1222.91 1491.55,814.197 1511.59,977.683 1531.63,977.683 1551.67,323.742 1571.72,1141.17 1591.76,650.712 1611.8,1141.17 1631.84,895.94 1651.89,732.455 1671.93,1141.17 1691.97,895.94 1712.01,814.197 1732.05,814.197 1752.1,568.969 1772.14,814.197 1792.18,487.227 1812.22,814.197 1832.26,732.455 1852.31,160.256 1872.35,814.197 1892.39,650.712 1912.43,814.197 1932.47,895.94 1952.52,732.455 1972.56,1059.43 1992.6,814.197 2012.64,650.712 2032.68,487.227 2052.73,732.455 2072.77,732.455 2092.81,732.455 2112.85,895.94 2132.89,977.683 2152.94,487.227 2172.98,977.683 2193.02,977.683 2213.06,487.227 2233.1,487.227 2253.15,650.712 2273.19,487.227 2293.23,650.712 "/>
<path clip-path="url(#clip870)" d="M1757.14 270.476 L2282.65 270.476 L2282.65 166.796 L1757.14 166.796  Z" fill="#ffffff" fill-rule="evenodd" fill-opacity="1"/>
<polyline clip-path="url(#clip870)" style="stroke:#000000; stroke-linecap:round; stroke-linejoin:round; stroke-width:4; stroke-opacity:1; fill:none" points="1757.14,270.476 2282.65,270.476 2282.65,166.796 1757.14,166.796 1757.14,270.476 "/>
<polyline clip-path="url(#clip870)" style="stroke:#009af9; stroke-linecap:round; stroke-linejoin:round; stroke-width:4; stroke-opacity:1; fill:none" points="1780.51,218.636 1920.73,218.636 "/>
<path clip-path="url(#clip870)" d="M1948.77 205.198 L1948.77 218.184 L1954.65 218.184 Q1957.92 218.184 1959.7 216.495 Q1961.48 214.805 1961.48 211.68 Q1961.48 208.578 1959.7 206.888 Q1957.92 205.198 1954.65 205.198 L1948.77 205.198 M1944.1 201.356 L1954.65 201.356 Q1960.46 201.356 1963.42 203.995 Q1966.41 206.61 1966.41 211.68 Q1966.41 216.795 1963.42 219.411 Q1960.46 222.027 1954.65 222.027 L1948.77 222.027 L1948.77 235.916 L1944.1 235.916 L1944.1 201.356 Z" fill="#000000" fill-rule="nonzero" fill-opacity="1" /><path clip-path="url(#clip870)" d="M1986.69 213.971 Q1985.97 213.555 1985.11 213.37 Q1984.28 213.161 1983.26 213.161 Q1979.65 213.161 1977.71 215.522 Q1975.79 217.86 1975.79 222.258 L1975.79 235.916 L1971.5 235.916 L1971.5 209.99 L1975.79 209.99 L1975.79 214.018 Q1977.13 211.657 1979.28 210.522 Q1981.43 209.365 1984.51 209.365 Q1984.95 209.365 1985.48 209.434 Q1986.02 209.481 1986.67 209.596 L1986.69 213.971 Z" fill="#000000" fill-rule="nonzero" fill-opacity="1" /><path clip-path="url(#clip870)" d="M2000.16 212.976 Q1996.73 212.976 1994.74 215.661 Q1992.75 218.323 1992.75 222.976 Q1992.75 227.629 1994.72 230.314 Q1996.71 232.976 2000.16 232.976 Q2003.56 232.976 2005.55 230.291 Q2007.54 227.606 2007.54 222.976 Q2007.54 218.37 2005.55 215.684 Q2003.56 212.976 2000.16 212.976 M2000.16 209.365 Q2005.72 209.365 2008.89 212.976 Q2012.06 216.587 2012.06 222.976 Q2012.06 229.342 2008.89 232.976 Q2005.72 236.587 2000.16 236.587 Q1994.58 236.587 1991.41 232.976 Q1988.26 229.342 1988.26 222.976 Q1988.26 216.587 1991.41 212.976 Q1994.58 209.365 2000.16 209.365 Z" fill="#000000" fill-rule="nonzero" fill-opacity="1" /><path clip-path="url(#clip870)" d="M2037.73 222.976 Q2037.73 218.277 2035.79 215.615 Q2033.86 212.93 2030.48 212.93 Q2027.11 212.93 2025.16 215.615 Q2023.24 218.277 2023.24 222.976 Q2023.24 227.675 2025.16 230.36 Q2027.11 233.022 2030.48 233.022 Q2033.86 233.022 2035.79 230.36 Q2037.73 227.675 2037.73 222.976 M2023.24 213.925 Q2024.58 211.61 2026.62 210.499 Q2028.68 209.365 2031.53 209.365 Q2036.25 209.365 2039.19 213.115 Q2042.15 216.865 2042.15 222.976 Q2042.15 229.087 2039.19 232.837 Q2036.25 236.587 2031.53 236.587 Q2028.68 236.587 2026.62 235.476 Q2024.58 234.342 2023.24 232.027 L2023.24 235.916 L2018.96 235.916 L2018.96 199.897 L2023.24 199.897 L2023.24 213.925 Z" fill="#000000" fill-rule="nonzero" fill-opacity="1" /><path clip-path="url(#clip870)" d="M2060.99 222.883 Q2055.83 222.883 2053.84 224.064 Q2051.85 225.244 2051.85 228.092 Q2051.85 230.36 2053.33 231.703 Q2054.84 233.022 2057.41 233.022 Q2060.95 233.022 2063.08 230.522 Q2065.23 227.999 2065.23 223.832 L2065.23 222.883 L2060.99 222.883 M2069.49 221.124 L2069.49 235.916 L2065.23 235.916 L2065.23 231.981 Q2063.77 234.342 2061.6 235.476 Q2059.42 236.587 2056.27 236.587 Q2052.29 236.587 2049.93 234.365 Q2047.59 232.119 2047.59 228.369 Q2047.59 223.994 2050.51 221.772 Q2053.45 219.55 2059.26 219.55 L2065.23 219.55 L2065.23 219.133 Q2065.23 216.194 2063.29 214.596 Q2061.36 212.976 2057.87 212.976 Q2055.65 212.976 2053.54 213.508 Q2051.43 214.041 2049.49 215.106 L2049.49 211.17 Q2051.83 210.268 2054.03 209.828 Q2056.23 209.365 2058.31 209.365 Q2063.93 209.365 2066.71 212.282 Q2069.49 215.198 2069.49 221.124 Z" fill="#000000" fill-rule="nonzero" fill-opacity="1" /><path clip-path="url(#clip870)" d="M2096.87 222.976 Q2096.87 218.277 2094.93 215.615 Q2093.01 212.93 2089.63 212.93 Q2086.25 212.93 2084.3 215.615 Q2082.38 218.277 2082.38 222.976 Q2082.38 227.675 2084.3 230.36 Q2086.25 233.022 2089.63 233.022 Q2093.01 233.022 2094.93 230.36 Q2096.87 227.675 2096.87 222.976 M2082.38 213.925 Q2083.73 211.61 2085.76 210.499 Q2087.82 209.365 2090.67 209.365 Q2095.39 209.365 2098.33 213.115 Q2101.29 216.865 2101.29 222.976 Q2101.29 229.087 2098.33 232.837 Q2095.39 236.587 2090.67 236.587 Q2087.82 236.587 2085.76 235.476 Q2083.73 234.342 2082.38 232.027 L2082.38 235.916 L2078.1 235.916 L2078.1 199.897 L2082.38 199.897 L2082.38 213.925 Z" fill="#000000" fill-rule="nonzero" fill-opacity="1" /><path clip-path="url(#clip870)" d="M2108.35 209.99 L2112.61 209.99 L2112.61 235.916 L2108.35 235.916 L2108.35 209.99 M2108.35 199.897 L2112.61 199.897 L2112.61 205.291 L2108.35 205.291 L2108.35 199.897 Z" fill="#000000" fill-rule="nonzero" fill-opacity="1" /><path clip-path="url(#clip870)" d="M2121.53 199.897 L2125.79 199.897 L2125.79 235.916 L2121.53 235.916 L2121.53 199.897 Z" fill="#000000" fill-rule="nonzero" fill-opacity="1" /><path clip-path="url(#clip870)" d="M2134.7 209.99 L2138.96 209.99 L2138.96 235.916 L2134.7 235.916 L2134.7 209.99 M2134.7 199.897 L2138.96 199.897 L2138.96 205.291 L2134.7 205.291 L2134.7 199.897 Z" fill="#000000" fill-rule="nonzero" fill-opacity="1" /><path clip-path="url(#clip870)" d="M2164.93 213.925 L2164.93 199.897 L2169.19 199.897 L2169.19 235.916 L2164.93 235.916 L2164.93 232.027 Q2163.59 234.342 2161.53 235.476 Q2159.49 236.587 2156.62 236.587 Q2151.92 236.587 2148.96 232.837 Q2146.02 229.087 2146.02 222.976 Q2146.02 216.865 2148.96 213.115 Q2151.92 209.365 2156.62 209.365 Q2159.49 209.365 2161.53 210.499 Q2163.59 211.61 2164.93 213.925 M2150.41 222.976 Q2150.41 227.675 2152.34 230.36 Q2154.28 233.022 2157.66 233.022 Q2161.04 233.022 2162.98 230.36 Q2164.93 227.675 2164.93 222.976 Q2164.93 218.277 2162.98 215.615 Q2161.04 212.93 2157.66 212.93 Q2154.28 212.93 2152.34 215.615 Q2150.41 218.277 2150.41 222.976 Z" fill="#000000" fill-rule="nonzero" fill-opacity="1" /><path clip-path="url(#clip870)" d="M2189.74 222.883 Q2184.58 222.883 2182.59 224.064 Q2180.6 225.244 2180.6 228.092 Q2180.6 230.36 2182.08 231.703 Q2183.59 233.022 2186.16 233.022 Q2189.7 233.022 2191.83 230.522 Q2193.98 227.999 2193.98 223.832 L2193.98 222.883 L2189.74 222.883 M2198.24 221.124 L2198.24 235.916 L2193.98 235.916 L2193.98 231.981 Q2192.52 234.342 2190.34 235.476 Q2188.17 236.587 2185.02 236.587 Q2181.04 236.587 2178.68 234.365 Q2176.34 232.119 2176.34 228.369 Q2176.34 223.994 2179.26 221.772 Q2182.2 219.55 2188.01 219.55 L2193.98 219.55 L2193.98 219.133 Q2193.98 216.194 2192.03 214.596 Q2190.11 212.976 2186.62 212.976 Q2184.4 212.976 2182.29 213.508 Q2180.18 214.041 2178.24 215.106 L2178.24 211.17 Q2180.58 210.268 2182.78 209.828 Q2184.97 209.365 2187.06 209.365 Q2192.68 209.365 2195.46 212.282 Q2198.24 215.198 2198.24 221.124 Z" fill="#000000" fill-rule="nonzero" fill-opacity="1" /><path clip-path="url(#clip870)" d="M2224.07 213.925 L2224.07 199.897 L2228.33 199.897 L2228.33 235.916 L2224.07 235.916 L2224.07 232.027 Q2222.73 234.342 2220.67 235.476 Q2218.63 236.587 2215.76 236.587 Q2211.06 236.587 2208.1 232.837 Q2205.16 229.087 2205.16 222.976 Q2205.16 216.865 2208.1 213.115 Q2211.06 209.365 2215.76 209.365 Q2218.63 209.365 2220.67 210.499 Q2222.73 211.61 2224.07 213.925 M2209.56 222.976 Q2209.56 227.675 2211.48 230.36 Q2213.42 233.022 2216.8 233.022 Q2220.18 233.022 2222.13 230.36 Q2224.07 227.675 2224.07 222.976 Q2224.07 218.277 2222.13 215.615 Q2220.18 212.93 2216.8 212.93 Q2213.42 212.93 2211.48 215.615 Q2209.56 218.277 2209.56 222.976 Z" fill="#000000" fill-rule="nonzero" fill-opacity="1" /><path clip-path="url(#clip870)" d="M2259.28 221.888 L2259.28 223.971 L2239.7 223.971 Q2239.97 228.369 2242.34 230.684 Q2244.72 232.976 2248.96 232.976 Q2251.41 232.976 2253.7 232.374 Q2256.02 231.772 2258.28 230.569 L2258.28 234.596 Q2255.99 235.568 2253.59 236.078 Q2251.18 236.587 2248.7 236.587 Q2242.5 236.587 2238.86 232.976 Q2235.25 229.365 2235.25 223.207 Q2235.25 216.842 2238.68 213.115 Q2242.13 209.365 2247.96 209.365 Q2253.19 209.365 2256.22 212.745 Q2259.28 216.101 2259.28 221.888 M2255.02 220.638 Q2254.97 217.143 2253.05 215.059 Q2251.15 212.976 2248.01 212.976 Q2244.44 212.976 2242.29 214.99 Q2240.16 217.004 2239.84 220.661 L2255.02 220.638 Z" fill="#000000" fill-rule="nonzero" fill-opacity="1" /></svg>
